<svg width="154" height="44" viewBox="0 0 154 44" fill="none" xmlns="http://www.w3.org/2000/svg">
<path d="M61.2278 35C59.5481 35 57.9839 34.8197 56.5352 34.4592C55.1074 34.0775 53.9316 33.5579 53.0078 32.9004C52.6509 32.6247 52.3884 32.3384 52.2205 32.0415C52.0735 31.7446 52 31.3628 52 30.8963C52 30.26 52.189 29.7086 52.5669 29.242C52.9448 28.7755 53.3857 28.5422 53.8896 28.5422C54.1626 28.5422 54.4251 28.5846 54.677 28.6694C54.929 28.7543 55.2439 28.9133 55.6218 29.1466C56.4827 29.6344 57.333 29.9843 58.1729 30.1964C59.0337 30.4085 59.9995 30.5145 61.0703 30.5145C62.3091 30.5145 63.2434 30.3343 63.8733 29.9737C64.5242 29.592 64.8496 29.0406 64.8496 28.3195C64.8496 27.8317 64.5452 27.4182 63.9363 27.0788C63.3484 26.7183 62.2146 26.3684 60.5349 26.029C58.4563 25.5837 56.8291 25.0535 55.6533 24.4385C54.4775 23.8234 53.6482 23.1024 53.1653 22.2752C52.7034 21.4269 52.4724 20.4089 52.4724 19.2213C52.4724 17.864 52.8713 16.6339 53.6692 15.5311C54.467 14.4283 55.5588 13.5694 56.9446 12.9544C58.3513 12.3181 59.926 12 61.6687 12C63.2014 12 64.5662 12.1697 65.7629 12.509C66.9597 12.8483 68.0515 13.3785 69.0383 14.0996C69.4163 14.3753 69.6787 14.6722 69.8257 14.9903C69.9937 15.2872 70.0777 15.6584 70.0777 16.1037C70.0777 16.74 69.8887 17.2914 69.5108 17.758C69.1538 18.2245 68.7234 18.4578 68.2195 18.4578C67.9465 18.4578 67.6946 18.426 67.4636 18.3624C67.2327 18.2775 66.9072 18.1079 66.4873 17.8534C66.3823 17.7898 66.0779 17.6307 65.574 17.3762C65.0911 17.1005 64.5137 16.8884 63.8418 16.74C63.1909 16.5703 62.4771 16.4855 61.7002 16.4855C60.6294 16.4855 59.7686 16.6976 59.1177 17.1217C58.4668 17.5247 58.1414 18.0655 58.1414 18.7441C58.1414 19.1471 58.2568 19.4758 58.4878 19.7303C58.7188 19.9848 59.1492 20.2393 59.7791 20.4938C60.4089 20.7271 61.3433 20.971 62.582 21.2254C64.5977 21.6708 66.1829 22.2116 67.3377 22.8479C68.4924 23.4629 69.3113 24.184 69.7942 25.0111C70.2771 25.8382 70.5186 26.8137 70.5186 27.9378C70.5186 29.3375 70.1301 30.5781 69.3533 31.6597C68.5764 32.7201 67.4846 33.5473 66.0779 34.1411C64.6921 34.7137 63.0754 35 61.2278 35Z" fill="#00AEFF"/>
<path d="M81.2711 34.8728C80.3893 34.8728 79.6754 34.6183 79.1295 34.1093C78.6046 33.5791 78.3422 32.8792 78.3422 32.0097V17.0263H73.9015C72.9777 17.0263 72.2848 16.8354 71.8229 16.4537C71.382 16.0507 71.1615 15.4463 71.1615 14.6404C71.1615 13.8345 71.382 13.2407 71.8229 12.8589C72.2848 12.4772 72.9777 12.2863 73.9015 12.2863H88.6408C89.5646 12.2863 90.247 12.4772 90.6879 12.8589C91.1498 13.2407 91.3807 13.8345 91.3807 14.6404C91.3807 15.4463 91.1498 16.0507 90.6879 16.4537C90.247 16.8354 89.5646 17.0263 88.6408 17.0263H84.2001V32.0097C84.2001 32.8792 83.9271 33.5791 83.3812 34.1093C82.8563 34.6183 82.153 34.8728 81.2711 34.8728Z" fill="#00AEFF"/>
<path d="M111.601 31.1189C111.79 31.5219 111.885 31.9142 111.885 32.296C111.885 32.9959 111.601 33.5897 111.034 34.0775C110.488 34.5652 109.859 34.8091 109.145 34.8091C108.662 34.8091 108.221 34.6819 107.822 34.4274C107.423 34.1729 107.108 33.7911 106.877 33.2822L105.46 30.0692H95.2558L93.807 33.2822C93.5761 33.7911 93.2506 34.1729 92.8307 34.4274C92.4318 34.6819 91.9909 34.8091 91.5079 34.8091C90.7941 34.8091 90.1432 34.5652 89.5553 34.0775C88.9884 33.5897 88.705 32.9959 88.705 32.296C88.705 31.9142 88.7995 31.5219 88.9884 31.1189L97.3029 13.8769C97.5758 13.3043 97.9748 12.8695 98.4997 12.5726C99.0456 12.2545 99.6439 12.0954 100.295 12.0954C100.925 12.0954 101.513 12.2545 102.058 12.5726C102.604 12.8695 103.014 13.3043 103.287 13.8769L111.601 31.1189ZM103.507 25.6791L100.358 18.5851L97.2084 25.6791H103.507Z" fill="#00AEFF"/>
<path d="M132.978 30.9917C133.356 31.5643 133.545 32.1051 133.545 32.6141C133.545 33.2928 133.261 33.8654 132.694 34.3319C132.148 34.7773 131.508 35 130.773 35C130.269 35 129.797 34.8834 129.356 34.6501C128.915 34.4168 128.537 34.0669 128.222 33.6003L124.128 27.556C123.834 27.1319 123.519 26.8243 123.183 26.6335C122.868 26.4214 122.49 26.3154 122.049 26.3154H120.002V32.0097C120.002 32.9004 119.75 33.6109 119.246 34.1411C118.742 34.6501 118.049 34.9046 117.168 34.9046C116.286 34.9046 115.582 34.6501 115.057 34.1411C114.554 33.6109 114.302 32.9004 114.302 32.0097V14.9903C114.302 14.1208 114.533 13.4527 114.994 12.9862C115.456 12.5196 116.118 12.2863 116.979 12.2863H124.884C127.571 12.2863 129.587 12.8801 130.931 14.0678C132.295 15.2342 132.978 16.9308 132.978 19.1577C132.978 20.8543 132.516 22.2965 131.592 23.4841C130.668 24.6505 129.366 25.4352 127.687 25.8382C128.38 25.9442 128.978 26.1775 129.482 26.538C130.007 26.8986 130.521 27.4394 131.025 28.1604L132.978 30.9917ZM123.97 21.9253C125.251 21.9253 126.164 21.7238 126.71 21.3209C127.277 20.9179 127.561 20.2605 127.561 19.3485C127.561 18.4154 127.277 17.7473 126.71 17.3444C126.164 16.9202 125.251 16.7082 123.97 16.7082H119.939V21.9253H123.97Z" fill="#00AEFF"/>
<path d="M143.89 34.8728C143.009 34.8728 142.295 34.6183 141.749 34.1093C141.224 33.5791 140.961 32.8792 140.961 32.0097V17.0263H136.521C135.597 17.0263 134.904 16.8354 134.442 16.4537C134.001 16.0507 133.781 15.4463 133.781 14.6404C133.781 13.8345 134.001 13.2407 134.442 12.8589C134.904 12.4772 135.597 12.2863 136.521 12.2863H151.26C152.184 12.2863 152.866 12.4772 153.307 12.8589C153.769 13.2407 154 13.8345 154 14.6404C154 15.4463 153.769 16.0507 153.307 16.4537C152.866 16.8354 152.184 17.0263 151.26 17.0263H146.819V32.0097C146.819 32.8792 146.546 33.5791 146 34.1093C145.476 34.6183 144.772 34.8728 143.89 34.8728Z" fill="#00AEFF"/>
<rect x="2.12132" y="21.875" width="27.9359" height="27.9359" transform="rotate(-45 2.12132 21.875)" stroke="#00AEFF" stroke-width="3"/>
<rect x="2.12132" y="21.875" width="19.0971" height="19.0971" transform="rotate(-45 2.12132 21.875)" stroke="#00AEFF" stroke-width="3"/>
<rect x="2.12132" y="21.875" width="10.2583" height="10.2583" transform="rotate(-45 2.12132 21.875)" stroke="#00AEFF" stroke-width="3"/>
</svg>
